# xmcd
#
# Track frame offsets: 
#        300
#        20217
#        33402
#        53294
#        70098
#        102177
#        118770
#        136133
#        158928
#        172672
#        195607
#
# Disc length: 2908 seconds
#
# Revision: 1
# Processed by: cddbd v1.5.2PL0 Copyright (c) Steve Scherf et al.
# Submitted via: ExactAudioCopy v0.95b4
#
DISCID=8a0b580b
DTITLE=Eric Clapton - 20th Century Masters - Best Of
DYEAR=1900
DGENRE=blues
TTITLE0=I Shot The Sheriff
TTITLE1=After Midnight
TTITLE2=Knockin On Heavens Door
TTITLE3=Wonderful Tonight
TTITLE4=Layla
TTITLE5=Cocaine
TTITLE6=Lay Down Sally
TTITLE7=Bell Bottom Blues
TTITLE8=Promises
TTITLE9=Let It Rain
TTITLE10=Let It Grow
EXTD=YEAR 2004
EXTT0=By LosEnviados.Net
EXTT1=By LosEnviados.Net
EXTT2=By LosEnviados.Net
EXTT3=By LosEnviados.Net
EXTT4=By LosEnviados.Net
EXTT5=By LosEnviados.Net
EXTT6=By LosEnviados.Net
EXTT7=By LosEnviados.Net
EXTT8=By LosEnviados.Net
EXTT9=By LosEnviados.Net
EXTT10=By LosEnviados.Net
PLAYORDER=
